<?xml version="1.0" encoding="UTF-8" standalone="no"?>
<!DOCTYPE svg PUBLIC "-//W3C//DTD SVG 1.1//EN"
 "http://www.w3.org/Graphics/SVG/1.1/DTD/svg11.dtd">
<!-- Generated by graphviz version 2.38.0 (20140413.2041)
 -->
<!-- Title: RNASeq Pages: 1 -->
<svg width="100%"
 viewBox="0.00 0.00 663.83 548.00" xmlns="http://www.w3.org/2000/svg" xmlns:xlink="http://www.w3.org/1999/xlink">
<g id="graph0" class="graph" transform="scale(1 1) rotate(0) translate(4 544)">
<title>RNASeq</title>
<polygon fill="white" stroke="none" points="-4,4 -4,-544 659.832,-544 659.832,4 -4,4"/>
<!-- Genomes -->
<g id="node1" class="node"><title>Genomes</title>
<polygon fill="#8dd3c7" stroke="black" points="92.1209,-516.438 202.608,-504 313.094,-516.438 312.991,-536.562 92.2241,-536.562 92.1209,-516.438"/>
<text text-anchor="middle" x="202.608" y="-517.8" font-family="Times,serif" font-size="14.00">repository of genomes</text>
</g>
<!-- References -->
<g id="node2" class="node"><title>References</title>
<polygon fill="#8dd3c7" stroke="black" points="201.523,-444.438 262.608,-432 323.692,-444.438 323.635,-464.562 201.58,-464.562 201.523,-444.438"/>
<text text-anchor="middle" x="262.608" y="-445.8" font-family="Times,serif" font-size="14.00">References</text>
</g>
<!-- Genomes&#45;&gt;References -->
<g id="edge1" class="edge"><title>Genomes&#45;&gt;References</title>
<path fill="none" stroke="black" d="M215.923,-505.465C224.287,-495.707 235.187,-482.99 244.351,-472.299"/>
<polygon fill="black" stroke="black" points="247.099,-474.471 250.95,-464.6 241.785,-469.915 247.099,-474.471"/>
</g>
<!-- TranscriptAnnotation -->
<g id="node7" class="node"><title>TranscriptAnnotation</title>
<polygon fill="#8dd3c7" stroke="black" points="-0.107623,-372.438 112.608,-360 225.323,-372.438 225.217,-392.562 -0.00241688,-392.562 -0.107623,-372.438"/>
<text text-anchor="middle" x="112.608" y="-373.8" font-family="Times,serif" font-size="14.00">Transcript Annotations</text>
</g>
<!-- Genomes&#45;&gt;TranscriptAnnotation -->
<g id="edge7" class="edge"><title>Genomes&#45;&gt;TranscriptAnnotation</title>
<path fill="none" stroke="black" d="M192.458,-504.987C176.363,-479.593 144.942,-430.017 126.681,-401.206"/>
<polygon fill="black" stroke="black" points="129.561,-399.21 121.251,-392.638 123.648,-402.958 129.561,-399.21"/>
</g>
<!-- IndexedReference -->
<g id="node3" class="node"><title>IndexedReference</title>
<ellipse fill="#ffffb3" stroke="black" cx="323.608" cy="-378" rx="80.1547" ry="18"/>
<text text-anchor="middle" x="323.608" y="-373.8" font-family="Times,serif" font-size="14.00">Indexed References</text>
</g>
<!-- References&#45;&gt;IndexedReference -->
<g id="edge2" class="edge"><title>References&#45;&gt;IndexedReference</title>
<path fill="none" stroke="black" d="M275.247,-434.496C283.033,-425.561 293.217,-413.874 302.231,-403.531"/>
<polygon fill="black" stroke="black" points="304.905,-405.789 308.836,-395.951 299.628,-401.19 304.905,-405.789"/>
</g>
<!-- Alignment -->
<g id="node4" class="node"><title>Alignment</title>
<ellipse fill="#ffffb3" stroke="black" cx="310.608" cy="-306" rx="47.8668" ry="18"/>
<text text-anchor="middle" x="310.608" y="-301.8" font-family="Times,serif" font-size="14.00">Alignment</text>
</g>
<!-- IndexedReference&#45;&gt;Alignment -->
<g id="edge3" class="edge"><title>IndexedReference&#45;&gt;Alignment</title>
<path fill="none" stroke="black" d="M320.394,-359.697C318.961,-351.983 317.24,-342.712 315.643,-334.112"/>
<polygon fill="black" stroke="black" points="319.051,-333.297 313.784,-324.104 312.169,-334.575 319.051,-333.297"/>
</g>
<!-- Counts -->
<g id="node6" class="node"><title>Counts</title>
<ellipse fill="#bebada" stroke="black" cx="288.608" cy="-234" rx="35.3389" ry="18"/>
<text text-anchor="middle" x="288.608" y="-229.8" font-family="Times,serif" font-size="14.00">Counts</text>
</g>
<!-- Alignment&#45;&gt;Counts -->
<g id="edge5" class="edge"><title>Alignment&#45;&gt;Counts</title>
<path fill="none" stroke="black" d="M305.282,-288.055C302.832,-280.261 299.866,-270.822 297.118,-262.079"/>
<polygon fill="black" stroke="black" points="300.374,-260.766 294.037,-252.275 293.696,-262.865 300.374,-260.766"/>
</g>
<!-- SequencingReads -->
<g id="node5" class="node"><title>SequencingReads</title>
<polygon fill="#80b1d3" stroke="black" points="421.73,-372.438 514.608,-360 607.485,-372.438 607.399,-392.562 421.816,-392.562 421.73,-372.438"/>
<text text-anchor="middle" x="514.608" y="-373.8" font-family="Times,serif" font-size="14.00">Sequencing Reads</text>
</g>
<!-- SequencingReads&#45;&gt;Alignment -->
<g id="edge4" class="edge"><title>SequencingReads&#45;&gt;Alignment</title>
<path fill="none" stroke="black" d="M478.606,-364.647C443.956,-352.757 391.498,-334.757 354.435,-322.039"/>
<polygon fill="black" stroke="black" points="355.486,-318.699 344.891,-318.764 353.214,-325.32 355.486,-318.699"/>
</g>
<!-- NormalizedCounts -->
<g id="node8" class="node"><title>NormalizedCounts</title>
<ellipse fill="#bebada" stroke="black" cx="288.608" cy="-162" rx="79.2462" ry="18"/>
<text text-anchor="middle" x="288.608" y="-157.8" font-family="Times,serif" font-size="14.00">Normalized Counts</text>
</g>
<!-- Counts&#45;&gt;NormalizedCounts -->
<g id="edge9" class="edge"><title>Counts&#45;&gt;NormalizedCounts</title>
<path fill="none" stroke="black" d="M288.608,-215.697C288.608,-207.983 288.608,-198.712 288.608,-190.112"/>
<polygon fill="black" stroke="black" points="292.108,-190.104 288.608,-180.104 285.108,-190.104 292.108,-190.104"/>
</g>
<!-- TranscriptAnnotation&#45;&gt;Alignment -->
<g id="edge6" class="edge"><title>TranscriptAnnotation&#45;&gt;Alignment</title>
<path fill="none" stroke="black" d="M149.386,-363.998C182.813,-352.18 232.157,-334.735 267.442,-322.261"/>
<polygon fill="black" stroke="black" points="268.734,-325.516 276.996,-318.883 266.401,-318.916 268.734,-325.516"/>
</g>
<!-- TranscriptAnnotation&#45;&gt;Counts -->
<g id="edge8" class="edge"><title>TranscriptAnnotation&#45;&gt;Counts</title>
<path fill="none" stroke="black" d="M131.443,-361.804C162.968,-336.369 226.484,-285.122 262.368,-256.17"/>
<polygon fill="black" stroke="black" points="264.85,-258.665 270.435,-249.662 260.455,-253.217 264.85,-258.665"/>
</g>
<!-- AbundanceEstimates -->
<g id="node9" class="node"><title>AbundanceEstimates</title>
<ellipse fill="#fb8072" stroke="black" cx="288.608" cy="-90" rx="86.9466" ry="18"/>
<text text-anchor="middle" x="288.608" y="-85.8" font-family="Times,serif" font-size="14.00">Abundance Estimates</text>
</g>
<!-- TranscriptAnnotation&#45;&gt;AbundanceEstimates -->
<g id="edge15" class="edge"><title>TranscriptAnnotation&#45;&gt;AbundanceEstimates</title>
<path fill="none" stroke="black" d="M115.084,-360.149C121.89,-318.955 144.263,-211.589 200.608,-144 211.767,-130.614 227.229,-119.724 242.083,-111.376"/>
<polygon fill="black" stroke="black" points="244.034,-114.302 251.209,-106.507 240.739,-108.126 244.034,-114.302"/>
</g>
<!-- NormalizedCounts&#45;&gt;AbundanceEstimates -->
<g id="edge10" class="edge"><title>NormalizedCounts&#45;&gt;AbundanceEstimates</title>
<path fill="none" stroke="black" d="M288.608,-143.697C288.608,-135.983 288.608,-126.712 288.608,-118.112"/>
<polygon fill="black" stroke="black" points="292.108,-118.104 288.608,-108.104 285.108,-118.104 292.108,-118.104"/>
</g>
<!-- DifferentialExpression -->
<g id="node11" class="node"><title>DifferentialExpression</title>
<polygon fill="#fdb462" stroke="black" points="268.921,-12.4377 383.608,7.10543e-15 498.294,-12.4377 498.187,-32.5623 269.028,-32.5623 268.921,-12.4377"/>
<text text-anchor="middle" x="383.608" y="-13.8" font-family="Times,serif" font-size="14.00">Differential Expression</text>
</g>
<!-- AbundanceEstimates&#45;&gt;DifferentialExpression -->
<g id="edge14" class="edge"><title>AbundanceEstimates&#45;&gt;DifferentialExpression</title>
<path fill="none" stroke="black" d="M311.121,-72.411C324.881,-62.272 342.552,-49.2514 357.001,-38.6046"/>
<polygon fill="black" stroke="black" points="359.108,-41.3996 365.083,-32.6499 354.956,-35.7642 359.108,-41.3996"/>
</g>
<!-- SampleInformation -->
<g id="node10" class="node"><title>SampleInformation</title>
<polygon fill="#80b1d3" stroke="black" points="455.158,-300.438 555.608,-288 656.057,-300.438 655.963,-320.562 455.252,-320.562 455.158,-300.438"/>
<text text-anchor="middle" x="555.608" y="-301.8" font-family="Times,serif" font-size="14.00">Sample Information</text>
</g>
<!-- SampleInformation&#45;&gt;DifferentialExpression -->
<g id="edge11" class="edge"><title>SampleInformation&#45;&gt;DifferentialExpression</title>
<path fill="none" stroke="black" d="M545.867,-288.804C516.779,-240.436 430.496,-96.9651 397.058,-41.3653"/>
<polygon fill="black" stroke="black" points="399.96,-39.3993 391.807,-32.6335 393.961,-43.0069 399.96,-39.3993"/>
</g>
<!-- Sample -->
<g id="node12" class="node"><title>Sample</title>
<polygon fill="#80b1d3" stroke="black" points="529.545,-444.438 574.608,-432 619.67,-444.438 619.628,-464.562 529.587,-464.562 529.545,-444.438"/>
<text text-anchor="middle" x="574.608" y="-445.8" font-family="Times,serif" font-size="14.00">Sample</text>
</g>
<!-- Sample&#45;&gt;SequencingReads -->
<g id="edge13" class="edge"><title>Sample&#45;&gt;SequencingReads</title>
<path fill="none" stroke="black" d="M562.753,-435.17C554.289,-425.295 542.738,-411.819 533.071,-400.541"/>
<polygon fill="black" stroke="black" points="535.602,-398.116 526.437,-392.801 530.288,-402.671 535.602,-398.116"/>
</g>
<!-- Sample&#45;&gt;SampleInformation -->
<g id="edge12" class="edge"><title>Sample&#45;&gt;SampleInformation</title>
<path fill="none" stroke="black" d="M589.334,-435.777C599.148,-425.918 611.203,-411.522 616.608,-396 621.869,-380.89 623.244,-374.559 616.608,-360 610.473,-346.544 599.048,-335.183 587.729,-326.473"/>
<polygon fill="black" stroke="black" points="589.743,-323.611 579.583,-320.608 585.653,-329.291 589.743,-323.611"/>
</g>
</g>
</svg>
